<?xml version="1.0" standalone="no"?><!DOCTYPE svg PUBLIC "-//W3C//DTD SVG 1.1//EN" "http://www.w3.org/Graphics/SVG/1.1/DTD/svg11.dtd"><svg t="1589166753522" class="icon" viewBox="0 0 1029 1024" version="1.1" xmlns="http://www.w3.org/2000/svg" p-id="17841" xmlns:xlink="http://www.w3.org/1999/xlink" width="200.9765625" height="200"><defs><style type="text/css"></style></defs><path d="M465.564188 1023.999126a462.663729 462.663729 0 0 1-181.231697-36.590895 467.092003 467.092003 0 0 1-247.740746-247.740746A462.663729 462.663729 0 0 1 0.000849 558.44792a464.155997 464.155997 0 0 1 135.88131-328.699316 464.010409 464.010409 0 0 1 147.467619-99.836366 462.603067 462.603067 0 0 1 180.697878-37.027657 21.243587 21.243587 0 0 1 15.056134 6.199585 21.231455 21.231455 0 0 1 6.248114 15.03187v420.382803h424.519904a21.231455 21.231455 0 0 1 21.267851 21.000942v2.948139a464.168129 464.168129 0 0 1-136.378733 329.196738 463.974013 463.974013 0 0 1-148.01357 99.763573 462.663729 462.663729 0 0 1-181.183168 36.590895z m-22.675194-888.081419a420.079497 420.079497 0 0 0-276.943095 123.74905A420.370671 420.370671 0 0 0 42.463759 558.44792a420.322142 420.322142 0 0 0 123.918902 299.169395 420.322142 420.322142 0 0 0 299.181527 123.918902 420.322142 420.322142 0 0 0 299.169395-123.918902 420.067364 420.067364 0 0 0 123.518537-280.655566h-424.143803a21.231455 21.231455 0 0 1-21.231455-21.231455z" p-id="17842"></path><path d="M1008.592006 484.101432H562.828515a21.231455 21.231455 0 0 1-21.231455-21.182926v-441.614258A21.231455 21.231455 0 0 1 562.31896 0.024265h1.916897a462.700125 462.700125 0 0 1 180.612952 36.336118 463.96188 463.96188 0 0 1 147.661735 99.096298A464.022542 464.022542 0 0 1 992.419703 282.523935a462.506009 462.506009 0 0 1 37.403757 180.212587 21.231455 21.231455 0 0 1-21.231454 21.352777z m-424.532036-42.46291h402.645439A420.103761 420.103761 0 0 0 862.604523 165.544685 420.140158 420.140158 0 0 0 584.05997 42.923935z" p-id="17843"></path></svg>