<?xml version="1.0" standalone="no"?><!DOCTYPE svg PUBLIC "-//W3C//DTD SVG 1.1//EN" "http://www.w3.org/Graphics/SVG/1.1/DTD/svg11.dtd"><svg t="1589166719253" class="icon" viewBox="0 0 1024 1024" version="1.1" xmlns="http://www.w3.org/2000/svg" p-id="17025" xmlns:xlink="http://www.w3.org/1999/xlink" width="200" height="200"><defs><style type="text/css"></style></defs><path d="M758.943706 967.576661H261.815193c-101.949064-0.122128-184.554862-82.699743-184.705175-184.630019v-563.01211C77.222752 117.976073 159.847339 35.342092 261.815193 35.229358h497.128513c101.977248 0.075156 184.648807 82.709138 184.761542 184.69578v563.01211c-0.216073 101.930275-82.831266 184.498495-184.761542 184.639413zM261.815193 87.998239c-72.844917 0.075156-131.870532 59.100771-131.945688 131.936293v563.01211c0.150312 72.779156 59.157138 131.729615 131.945688 131.804771h497.128513c72.779156-0.075156 131.776587-59.025615 131.936294-131.804771v-563.01211c-0.08455-72.835523-59.100771-131.861138-131.936294-131.936293H261.815193z" p-id="17026"></path><path d="M696.78033 193.517211H585.436771c-58.217688 0.112734-105.349872 47.301284-105.425028 105.518972v83.094312c0.037578 58.245872 47.179156 105.462606 105.425028 105.57534h111.343559c58.170716 0 105.509578-47.329468 105.584734-105.57534v-83.094312c-0.075156-58.274055-47.320073-105.481394-105.584734-105.518972z m52.825248 188.613284a52.834642 52.834642 0 0 1-52.825248 52.825248H585.436771c-28.991413 0-52.693725-23.702312-52.693725-52.825248v-83.094312a52.834642 52.834642 0 0 1 52.693725-52.759486h111.343559a52.825248 52.825248 0 0 1 52.825248 52.759486v83.094312zM348.066055 246.276697H246.192147a26.417321 26.417321 0 1 1 0-52.759486h101.883303a26.389138 26.389138 0 1 1-0.009395 52.759486zM348.066055 435.406679H246.192147a26.398532 26.398532 0 1 1 0-52.759486h101.883303a26.389138 26.389138 0 1 1-0.009395 52.759486zM775.957138 624.564844H246.192147a26.417321 26.417321 0 0 1-0.037578-52.834642h529.811963a26.407927 26.407927 0 1 1 0.028184 52.834642h-0.037578zM585.436771 813.657248H246.192147a26.417321 26.417321 0 1 1 0-52.759487h339.254018a26.407927 26.407927 0 1 1-0.009394 52.759487z" p-id="17027"></path></svg>