<?xml version="1.0" standalone="no"?><!DOCTYPE svg PUBLIC "-//W3C//DTD SVG 1.1//EN" "http://www.w3.org/Graphics/SVG/1.1/DTD/svg11.dtd"><svg t="1589166611039" class="icon" viewBox="0 0 1024 1024" version="1.1" xmlns="http://www.w3.org/2000/svg" p-id="13949" xmlns:xlink="http://www.w3.org/1999/xlink" width="200" height="200"><defs><style type="text/css"></style></defs><path d="M284.4444448 11.37777813h637.1555552a91.02222187 91.02222187 0 0 1 91.02222187 91.02222187v819.2a91.02222187 91.02222187 0 0 1-91.02222187 91.02222187H284.4444448a91.02222187 91.02222187 0 0 1-91.02222293-91.02222187V102.4a91.02222187 91.02222187 0 0 1 91.02222293-91.02222187z m45.5111104 136.53333334v273.06666666h546.13333333V147.91111147H329.9555552z m0 364.08888853v91.02222187h546.13333333v-91.02222187H329.9555552z m0 182.0444448v91.02222187h273.06666667v-91.02222187H329.9555552zM56.88888853 102.4h45.51111147v819.2H56.88888853a45.51111147 45.51111147 0 0 1-45.5111104-45.51111147V147.91111147a45.51111147 45.51111147 0 0 1 45.5111104-45.51111147z" p-id="13950"></path></svg>